<?xml version="1.0" encoding="iso-8859-1"?>
<!-- Generator: Adobe Illustrator 19.0.0, SVG Export Plug-In . SVG Version: 6.00 Build 0)  -->
<svg version="1.1" id="Layer_1" xmlns="http://www.w3.org/2000/svg" xmlns:xlink="http://www.w3.org/1999/xlink" x="0px"
	y="0px" viewBox="0 0 496.961 496.961" style="enable-background:new 0 0 496.961 496.961;" xml:space="preserve">
	<path style="fill:#2488FF;" d="M224.461,247.5c0-13.785,11.215-25,25-25V0C183.352,0,121.199,25.745,74.452,72.491
		S1.961,181.391,1.961,247.501c0,46.672,12.939,91.762,37.512,131.041L0,496.961l118.42-39.473
		C157.698,482.061,202.788,495,249.461,495V272.5C235.676,272.5,224.461,261.285,224.461,247.5z M173.385,272.5
		c-13.785,0-25-11.215-25-25s11.215-25,25-25s25,11.215,25,25S187.17,272.5,173.385,272.5z" />
	<path style="fill:#2488FF;" d="M424.47,72.491C377.723,25.745,315.57,0,249.461,0v222.5c13.785,0,25,11.215,25,25s-11.215,25-25,25
		V495c66.109,0,128.262-25.744,175.009-72.491c46.747-46.746,72.491-108.899,72.491-175.008
		C496.961,181.391,471.216,119.238,424.47,72.491z M325.537,272.5c-13.785,0-25-11.215-25-25s11.215-25,25-25s25,11.215,25,25
		S339.322,272.5,325.537,272.5z" />
	<path style="fill:#FFDA44;" d="M173.385,222.5c-13.785,0-25,11.215-25,25s11.215,25,25,25s25-11.215,25-25
		S187.17,222.5,173.385,222.5z" />
	<path style="fill:#FFDA44;" d="M325.537,222.5c-13.785,0-25,11.215-25,25s11.215,25,25,25s25-11.215,25-25
		S339.322,222.5,325.537,222.5z" />
	<path style="fill:#FFDA44;" d="M224.461,247.5c0,13.785,11.215,25,25,25s25-11.215,25-25s-11.215-25-25-25
		S224.461,233.715,224.461,247.5z" />
</svg>